#Comment line ignore any data following # character 
#Hierarchical Translation and Rotation (.htr) file 
[Header]	
#Header keywords are followed by a single value 
FileType HTR		#Single word string
DataType HTRS		#Translation followed by rotation and scale data
FileVersion 1		#integer
NumSegments 84		#integer
NumFrames 2		#integer
DataFrameRate 30		#integer, data frame rate in this file
EulerRotationOrder ZYX
CalibrationUnits mm
RotationUnits Degrees
GlobalAxisofGravity Y
BoneLengthAxis Y
ScaleFactor 1.00
[SegmentNames&Hierarchy]
#CHILD	PARENT
MASTER GLOBAL
root MASTER
chest root
L_mid_tent01 root
R_mid_tent01 root
spine01 root
Bip01_Neck chest
L_humerus chest
R_humerus chest
weapon_bone chest
Bip01_Head Bip01_Neck
eye_left_bone Bip01_Head
eye_right_bone Bip01_Head
L_forearm L_humerus
L_front_hand L_forearm
L_weapon_bone L_forearm
L_front_hand01_01 L_front_hand
L_front_hand02_01 L_front_hand
L_front_hand03_01 L_front_hand
L_front_hand01_02 L_front_hand01_01
L_front_hand02_02 L_front_hand02_01
L_front_hand03_02 L_front_hand03_01
R_forearm R_humerus
R_front_hand R_forearm
R_weapon_bone R_forearm
R_front_hand01_01 R_front_hand
R_front_hand02_01 R_front_hand
R_front_hand03_01 R_front_hand
R_front_hand01_02 R_front_hand01_01
R_front_hand02_02 R_front_hand02_01
R_front_hand03_02 R_front_hand03_01
null_rope01_connect L_mid_tent01
Rope1_Seg01 null_rope01_connect
Rope1_Seg02 Rope1_Seg01
Rope1_Seg03 Rope1_Seg02
Rope1_Seg04 Rope1_Seg03
Rope1_Seg05 Rope1_Seg04
Rope1_Seg06 Rope1_Seg05
Rope1_Seg07 Rope1_Seg06
Rope1_Seg09 Rope1_Seg07
L_mid_hand01 Rope1_Seg09
L_mid_hand02 Rope1_Seg09
L_mid_hand03 Rope1_Seg09
null_rope02_connect R_mid_tent01
Rope2_Seg01 null_rope02_connect
Rope2_Seg02 Rope2_Seg01
Rope2_Seg03 Rope2_Seg02
Rope2_Seg04 Rope2_Seg03
Rope2_Seg05 Rope2_Seg04
Rope2_Seg06 Rope2_Seg05
Rope2_Seg07 Rope2_Seg06
Rope2_Seg09 Rope2_Seg07
R_mid_hand01 Rope2_Seg09
R_mid_hand02 Rope2_Seg09
R_mid_hand03 Rope2_Seg09
spine02 spine01
spine03 spine02
pelvis spine03
null_rope03_connect pelvis
null_rope04_connect pelvis
Rope3_Seg01 null_rope03_connect
Rope3_Seg02 Rope3_Seg01
Rope3_Seg03 Rope3_Seg02
Rope3_Seg04 Rope3_Seg03
Rope3_Seg05 Rope3_Seg04
Rope3_Seg06 Rope3_Seg05
Rope3_Seg07 Rope3_Seg06
Rope3_Seg08 Rope3_Seg07
Rope3_Seg09 Rope3_Seg08
R_rear_hand01 Rope3_Seg09
R_rear_hand02 Rope3_Seg09
R_rear_hand03 Rope3_Seg09
Rope4_Seg01 null_rope04_connect
Rope4_Seg02 Rope4_Seg01
Rope4_Seg03 Rope4_Seg02
Rope4_Seg04 Rope4_Seg03
Rope4_Seg05 Rope4_Seg04
Rope4_Seg06 Rope4_Seg05
Rope4_Seg07 Rope4_Seg06
Rope4_Seg08 Rope4_Seg07
Rope4_Seg09 Rope4_Seg08
L_rear_hand01 Rope4_Seg09
L_rear_hand02 Rope4_Seg09
L_rear_hand03 Rope4_Seg09
[BasePosition]
#SegmentName Tx, Ty, Tz, Rx, Ry, Rz, BoneLength
MASTER 0.000000 0.000000 0.000000 -90.000000 0.000000 0.000000 10.000000 
root 0.000000 0.000000 0.000000 0.000000 0.000000 0.000000 10.000000 
chest 0.000000 0.000000 0.000000 0.000000 0.000000 0.000000 10.000000 
L_mid_tent01 0.000000 0.000000 0.000000 0.000000 0.000000 0.000000 10.000000 
R_mid_tent01 0.000000 0.000000 0.000000 0.000000 0.000000 0.000000 10.000000 
spine01 0.000000 0.000000 0.000000 0.000000 0.000000 0.000000 10.000000 
Bip01_Neck 0.000000 0.000000 0.000000 0.000000 0.000000 0.000000 10.000000 
L_humerus 0.000000 0.000000 0.000000 0.000000 0.000000 0.000000 10.000000 
R_humerus 0.000000 0.000000 0.000000 0.000000 0.000000 0.000000 10.000000 
weapon_bone 0.000000 0.000000 0.000000 0.000000 0.000000 0.000000 10.000000 
Bip01_Head 0.000000 0.000000 0.000000 0.000000 0.000000 0.000000 10.000000 
eye_left_bone 0.000000 0.000000 0.000000 0.000000 0.000000 0.000000 10.000000 
eye_right_bone 0.000000 0.000000 0.000000 0.000000 0.000000 0.000000 10.000000 
L_forearm 0.000000 0.000000 0.000000 0.000000 0.000000 0.000000 10.000000 
L_front_hand 0.000000 0.000000 0.000000 0.000000 0.000000 0.000000 10.000000 
L_weapon_bone 0.000000 0.000000 0.000000 0.000000 0.000000 0.000000 10.000000 
L_front_hand01_01 0.000000 0.000000 0.000000 0.000000 0.000000 0.000000 10.000000 
L_front_hand02_01 0.000000 0.000000 0.000000 0.000000 0.000000 0.000000 10.000000 
L_front_hand03_01 0.000000 0.000000 0.000000 0.000000 0.000000 0.000000 10.000000 
L_front_hand01_02 0.000000 0.000000 0.000000 0.000000 0.000000 0.000000 10.000000 
L_front_hand02_02 0.000000 0.000000 0.000000 0.000000 0.000000 0.000000 10.000000 
L_front_hand03_02 0.000000 0.000000 0.000000 0.000000 0.000000 0.000000 10.000000 
R_forearm 0.000000 0.000000 0.000000 0.000000 0.000000 0.000000 10.000000 
R_front_hand 0.000000 0.000000 0.000000 0.000000 0.000000 0.000000 10.000000 
R_weapon_bone 0.000000 0.000000 0.000000 0.000000 0.000000 0.000000 10.000000 
R_front_hand01_01 0.000000 0.000000 0.000000 0.000000 0.000000 0.000000 10.000000 
R_front_hand02_01 0.000000 0.000000 0.000000 0.000000 0.000000 0.000000 10.000000 
R_front_hand03_01 0.000000 0.000000 0.000000 0.000000 0.000000 0.000000 10.000000 
R_front_hand01_02 0.000000 0.000000 0.000000 0.000000 0.000000 0.000000 10.000000 
R_front_hand02_02 0.000000 0.000000 0.000000 0.000000 0.000000 0.000000 10.000000 
R_front_hand03_02 0.000000 0.000000 0.000000 0.000000 0.000000 0.000000 10.000000 
null_rope01_connect 0.000000 0.000000 0.000000 0.000000 0.000000 0.000000 10.000000 
Rope1_Seg01 0.000000 0.000000 0.000000 0.000000 0.000000 0.000000 10.000000 
Rope1_Seg02 0.000000 0.000000 0.000000 0.000000 0.000000 0.000000 10.000000 
Rope1_Seg03 0.000000 0.000000 0.000000 0.000000 0.000000 0.000000 10.000000 
Rope1_Seg04 0.000000 0.000000 0.000000 0.000000 0.000000 0.000000 10.000000 
Rope1_Seg05 0.000000 0.000000 0.000000 0.000000 0.000000 0.000000 10.000000 
Rope1_Seg06 0.000000 0.000000 0.000000 0.000000 0.000000 0.000000 10.000000 
Rope1_Seg07 0.000000 0.000000 0.000000 0.000000 0.000000 0.000000 10.000000 
Rope1_Seg09 0.000000 0.000000 0.000000 0.000000 0.000000 0.000000 10.000000 
L_mid_hand01 0.000000 0.000000 0.000000 0.000000 0.000000 0.000000 10.000000 
L_mid_hand02 0.000000 0.000000 0.000000 0.000000 0.000000 0.000000 10.000000 
L_mid_hand03 0.000000 0.000000 0.000000 0.000000 0.000000 0.000000 10.000000 
null_rope02_connect 0.000000 0.000000 0.000000 0.000000 0.000000 0.000000 10.000000 
Rope2_Seg01 0.000000 0.000000 0.000000 0.000000 0.000000 0.000000 10.000000 
Rope2_Seg02 0.000000 0.000000 0.000000 0.000000 0.000000 0.000000 10.000000 
Rope2_Seg03 0.000000 0.000000 0.000000 0.000000 0.000000 0.000000 10.000000 
Rope2_Seg04 0.000000 0.000000 0.000000 0.000000 0.000000 0.000000 10.000000 
Rope2_Seg05 0.000000 0.000000 0.000000 0.000000 0.000000 0.000000 10.000000 
Rope2_Seg06 0.000000 0.000000 0.000000 0.000000 0.000000 0.000000 10.000000 
Rope2_Seg07 0.000000 0.000000 0.000000 0.000000 0.000000 0.000000 10.000000 
Rope2_Seg09 0.000000 0.000000 0.000000 0.000000 0.000000 0.000000 10.000000 
R_mid_hand01 0.000000 0.000000 0.000000 0.000000 0.000000 0.000000 10.000000 
R_mid_hand02 0.000000 0.000000 0.000000 0.000000 0.000000 0.000000 10.000000 
R_mid_hand03 0.000000 0.000000 0.000000 0.000000 0.000000 0.000000 10.000000 
spine02 0.000000 0.000000 0.000000 0.000000 0.000000 0.000000 10.000000 
spine03 0.000000 0.000000 0.000000 0.000000 0.000000 0.000000 10.000000 
pelvis 0.000000 0.000000 0.000000 0.000000 0.000000 0.000000 10.000000 
null_rope03_connect 0.000000 0.000000 0.000000 0.000000 0.000000 0.000000 10.000000 
null_rope04_connect 0.000000 0.000000 0.000000 0.000000 0.000000 0.000000 10.000000 
Rope3_Seg01 0.000000 0.000000 0.000000 0.000000 0.000000 0.000000 10.000000 
Rope3_Seg02 0.000000 0.000000 0.000000 0.000000 0.000000 0.000000 10.000000 
Rope3_Seg03 0.000000 0.000000 0.000000 0.000000 0.000000 0.000000 10.000000 
Rope3_Seg04 0.000000 0.000000 0.000000 0.000000 0.000000 0.000000 10.000000 
Rope3_Seg05 0.000000 0.000000 0.000000 0.000000 0.000000 0.000000 10.000000 
Rope3_Seg06 0.000000 0.000000 0.000000 0.000000 0.000000 0.000000 10.000000 
Rope3_Seg07 0.000000 0.000000 0.000000 0.000000 0.000000 0.000000 10.000000 
Rope3_Seg08 0.000000 0.000000 0.000000 0.000000 0.000000 0.000000 10.000000 
Rope3_Seg09 0.000000 0.000000 0.000000 0.000000 0.000000 0.000000 10.000000 
R_rear_hand01 0.000000 0.000000 0.000000 0.000000 0.000000 0.000000 10.000000 
R_rear_hand02 0.000000 0.000000 0.000000 0.000000 0.000000 0.000000 10.000000 
R_rear_hand03 0.000000 0.000000 0.000000 0.000000 0.000000 0.000000 10.000000 
Rope4_Seg01 0.000000 0.000000 0.000000 0.000000 0.000000 0.000000 10.000000 
Rope4_Seg02 0.000000 0.000000 0.000000 0.000000 0.000000 0.000000 10.000000 
Rope4_Seg03 0.000000 0.000000 0.000000 0.000000 0.000000 0.000000 10.000000 
Rope4_Seg04 0.000000 0.000000 0.000000 0.000000 0.000000 0.000000 10.000000 
Rope4_Seg05 0.000000 0.000000 0.000000 0.000000 0.000000 0.000000 10.000000 
Rope4_Seg06 0.000000 0.000000 0.000000 0.000000 0.000000 0.000000 10.000000 
Rope4_Seg07 0.000000 0.000000 0.000000 0.000000 0.000000 0.000000 10.000000 
Rope4_Seg08 0.000000 0.000000 0.000000 0.000000 0.000000 0.000000 10.000000 
Rope4_Seg09 0.000000 0.000000 0.000000 0.000000 0.000000 0.000000 10.000000 
L_rear_hand01 0.000000 0.000000 0.000000 0.000000 0.000000 0.000000 10.000000 
L_rear_hand02 0.000000 0.000000 0.000000 0.000000 0.000000 0.000000 10.000000 
L_rear_hand03 0.000000 0.000000 0.000000 0.000000 0.000000 0.000000 10.000000 
#Beginning of Data. Separated by tabs
#Fr	Tx	Ty	Tz	Rx	Ry	Rz	SF
[MASTER]
26 -1823.433838 -4955.922852 0.000000 0.000574 0.002276 -61.684254 5280.728027
27 -1861.259521 -5167.785156 0.000000 0.000590 0.002272 -60.902435 5492.749023
[root]
26 -62.822098 100.014610 1112.714478 -88.775597 -5.063249 179.539780 1118.965210
27 -62.822334 102.525536 1123.617310 -88.095329 -4.928703 179.588959 1130.032715
[chest]
26 -84.512650 -34.090519 0.000000 4.255985 -0.744716 156.384811 91.129311
27 -84.512650 -34.090519 0.000000 3.017653 -0.745539 156.385895 91.129311
[L_mid_tent01]
26 23.228750 24.509907 -223.761200 -8.432985 10.645749 3.086618 226.294907
27 23.228750 24.509907 -223.761200 -9.353504 10.947851 -0.148958 226.294907
[R_mid_tent01]
26 23.228794 24.509907 226.238495 -161.385849 -10.365147 -0.398284 228.744751
27 23.228794 24.509907 226.238495 -161.912292 -16.082230 -2.812265 228.744751
[spine01]
26 -0.361383 -0.195265 0.000000 0.001815 0.001488 11.320962 0.410763
27 -0.361383 -0.195265 0.000000 0.001815 0.001488 11.320962 0.410763
[Bip01_Neck]
26 165.484543 71.581718 0.000119 175.896118 1.177290 24.871183 180.302734
27 165.484543 71.581718 0.000119 175.896118 1.177290 24.871183 180.302734
[L_humerus]
26 -13.983130 -135.272980 -120.471481 120.720192 76.357620 -140.324326 181.680161
27 -13.983130 -135.272980 -120.471481 99.212532 79.417160 -160.934128 181.680161
[R_humerus]
26 -13.983309 -135.273102 125.287651 -157.125397 -72.359818 -105.518127 184.909012
27 -13.983309 -135.273102 125.287651 -153.610840 -77.836548 -108.522873 184.909012
[weapon_bone]
26 235.964890 -300.705902 0.000000 0.000000 -89.951546 -128.212341 382.234833
27 235.964890 -300.705902 0.000000 0.000000 -89.951546 -128.212341 382.234833
[Bip01_Head]
26 201.313599 211.516739 15.929934 1.483264 3.881281 -64.543022 292.438477
27 201.313583 211.516739 15.929941 0.840861 4.144682 -64.418282 292.438446
[eye_left_bone]
26 -24.626970 125.451866 -64.772606 0.000000 -90.000000 -99.840431 143.318359
27 -24.626970 125.451866 -64.772606 0.000000 -90.000000 -99.840431 143.318359
[eye_right_bone]
26 -24.626970 125.451866 64.327362 0.000000 -89.965736 80.156380 143.117676
27 -24.626970 125.451866 64.327362 0.000000 -89.965736 80.156380 143.117676
[L_forearm]
26 322.776093 0.000000 -0.000119 0.000357 -0.002320 -107.506004 322.776093
27 322.776093 0.000000 -0.000119 0.000357 -0.002320 -107.506004 322.776093
[L_front_hand]
26 241.149185 -0.042021 -3.300071 -179.431961 -2.195943 -5.942918 241.171753
27 241.149185 -0.042021 -3.300071 -179.431961 -2.195943 -5.942918 241.171753
[L_weapon_bone]
26 156.183838 0.000000 0.000000 0.000014 0.000007 0.000001 156.183838
27 156.183838 0.000000 0.000000 0.000014 0.000007 0.000001 156.183838
[L_front_hand01_01]
26 86.095154 20.947098 -0.655860 0.139491 -0.584553 24.181786 88.609184
27 86.095154 20.947098 -0.655860 0.139491 -0.584553 24.181786 88.609184
[L_front_hand02_01]
26 86.935165 -11.437475 24.513514 119.190460 -21.905661 -12.119137 91.046425
27 86.935165 -11.437475 24.513514 119.190460 -21.905655 -12.119137 91.046425
[L_front_hand03_01]
26 86.637497 -14.123976 -20.424902 -120.437630 20.554031 -14.327168 90.126129
27 86.637497 -14.123976 -20.424902 -120.437630 20.554031 -14.327168 90.126129
[L_front_hand01_02]
26 71.020905 -0.000179 0.000030 0.000334 -0.002323 -106.379684 71.020905
27 71.020905 -0.000179 0.000030 0.000334 -0.002323 -106.379684 71.020905
[L_front_hand02_02]
26 71.020927 -0.000119 0.000060 0.000334 -0.002323 -106.379684 71.020927
27 71.020927 -0.000119 0.000060 0.000334 -0.002323 -106.379684 71.020927
[L_front_hand03_02]
26 71.020905 -0.000060 0.000060 0.000334 -0.002323 -106.379684 71.020905
27 71.020905 -0.000060 0.000060 0.000334 -0.002323 -106.379684 71.020905
[R_forearm]
26 322.776428 -0.000060 0.000030 0.196737 0.083011 -114.368637 322.776428
27 322.776428 -0.000060 0.000030 0.196737 0.083011 -114.368637 322.776428
[R_front_hand]
26 238.847015 -0.006795 2.210259 -0.341870 1.692706 -0.151780 238.857239
27 238.847015 -0.006795 2.210259 -0.341870 1.692706 -0.151780 238.857239
[R_weapon_bone]
26 155.664093 0.002503 -0.000030 0.003487 0.001180 -90.988930 155.664078
27 155.664093 0.002503 -0.000030 0.003487 0.001180 -90.988930 155.664078
[R_front_hand01_01]
26 87.624611 14.231146 22.918642 -119.218056 -22.033409 12.303375 91.683487
27 87.624611 14.231146 22.918642 -119.218056 -22.033409 12.303375 91.683487
[R_front_hand02_01]
26 89.356956 14.367283 -19.491137 120.545532 20.947184 14.823009 92.579636
27 89.356956 14.367283 -19.491137 120.545532 20.947184 14.823009 92.579636
[R_front_hand03_01]
26 87.286232 -22.307278 -0.143439 -0.231628 -0.392922 -24.567768 90.091743
27 87.286232 -22.307278 -0.143439 -0.231628 -0.392922 -24.567768 90.091743
[R_front_hand01_02]
26 71.020905 0.000060 0.000119 0.002323 -0.000334 106.381714 71.020905
27 71.020905 0.000060 0.000119 0.002323 -0.000334 106.381714 71.020905
[R_front_hand02_02]
26 71.020844 -0.000030 -0.000119 0.002323 -0.000334 106.381714 71.020836
27 71.020844 -0.000030 -0.000119 0.002323 -0.000334 106.381714 71.020836
[R_front_hand03_02]
26 71.020905 0.000000 0.000030 0.002323 -0.000334 106.381714 71.020905
27 71.020905 0.000000 0.000030 0.002323 -0.000334 106.381714 71.020905
[null_rope01_connect]
26 328.732483 0.000000 -0.000238 -112.310890 71.638451 160.452530 328.732483
27 328.732483 0.000000 -0.000238 -111.090111 71.676460 164.541916 328.732483
[Rope1_Seg01]
26 -0.000032 0.000006 0.000127 -116.156128 -73.202858 -132.990997 0.000131
27 -0.000033 0.000005 0.000132 -20.222319 -21.194351 -130.016357 0.000136
[Rope1_Seg02]
26 139.999863 -0.000179 0.000000 -25.491434 31.657469 -75.966072 139.999863
27 139.999863 -0.000179 0.000000 -24.527029 -56.242210 -99.081757 139.999863
[Rope1_Seg03]
26 139.999924 0.000060 -0.000060 -13.265335 16.269215 11.246155 139.999924
27 139.999924 0.000060 -0.000060 1.718839 14.397711 -38.398346 139.999924
[Rope1_Seg04]
26 139.999924 -0.000060 -0.000119 -11.948806 21.652252 43.051884 139.999924
27 139.999924 -0.000060 -0.000119 -18.224638 19.699543 21.023134 139.999924
[Rope1_Seg05]
26 139.999832 0.000119 -0.000060 -1.273771 3.166222 18.828934 139.999832
27 139.999832 0.000119 -0.000060 -8.785482 12.880516 43.014347 139.999832
[Rope1_Seg06]
26 139.999954 0.000119 -0.000060 0.122391 1.050385 5.603814 139.999954
27 139.999954 0.000119 -0.000060 -0.229765 1.472135 11.746586 139.999954
[Rope1_Seg07]
26 139.999985 0.000060 0.000000 0.187040 0.609908 3.222783 139.999985
27 139.999985 0.000060 0.000000 0.240199 0.709084 4.945542 139.999985
[Rope1_Seg09]
26 121.602913 0.000119 -0.000089 -89.793175 -1.359789 0.847147 121.602913
27 121.602913 0.000119 -0.000089 -89.793175 -1.359789 0.847147 121.602913
[L_mid_hand01]
26 103.859421 1.038730 8.195221 106.855484 -31.239275 -9.461397 104.187431
27 103.859421 1.038730 8.195221 106.855484 -31.239275 -9.461397 104.187431
[L_mid_hand02]
26 105.572853 -4.139662 -10.864139 -142.331345 25.752670 -28.774628 106.211075
27 105.572853 -4.139662 -10.864139 -142.331345 25.752670 -28.774628 106.211075
[L_mid_hand03]
26 104.641464 17.579376 -3.913581 -16.122810 9.734291 34.223598 106.179977
27 104.641464 17.579376 -3.913581 -16.122810 9.734291 34.223598 106.179977
[null_rope02_connect]
26 328.732849 0.000179 -0.000119 117.741722 -46.361942 153.252762 328.732849
27 328.732849 0.000179 -0.000119 113.311539 -40.211838 156.095581 328.732849
[Rope2_Seg01]
26 -0.000145 -0.000025 -0.000153 -45.959946 -45.747349 -141.996918 0.000212
27 -0.000146 -0.000020 -0.000153 -37.610844 -37.522507 -154.388458 0.000212
[Rope2_Seg02]
26 139.999741 -0.000060 -0.000119 -0.832008 8.157640 -9.852446 139.999756
27 139.999741 -0.000060 -0.000119 0.477942 5.220529 -8.375767 139.999756
[Rope2_Seg03]
26 140.000107 0.000030 0.000000 7.636192 28.921230 -53.162655 140.000107
27 140.000107 0.000030 0.000000 8.452660 15.072272 -33.166710 140.000107
[Rope2_Seg04]
26 139.999802 0.000000 -0.000060 65.671616 11.074549 -47.366768 139.999802
27 139.999802 0.000000 -0.000060 61.081257 9.505785 -68.498398 139.999802
[Rope2_Seg05]
26 139.999985 -0.000060 0.000119 -57.455006 31.193314 3.240322 139.999985
27 139.999985 -0.000060 0.000119 -32.535076 35.724258 -2.230896 139.999985
[Rope2_Seg06]
26 139.999893 -0.000030 -0.000119 -42.426357 6.706686 14.944074 139.999893
27 139.999893 -0.000030 -0.000119 -59.115669 17.297949 12.503018 139.999893
[Rope2_Seg07]
26 139.999893 0.000060 -0.000060 -6.983148 -0.917631 4.027443 139.999893
27 139.999893 0.000060 -0.000060 -10.568500 0.186458 4.574983 139.999893
[Rope2_Seg09]
26 121.338966 0.000089 -0.000060 33.793236 -1.359788 -0.847141 121.338966
27 121.338966 0.000089 -0.000060 33.793236 -1.359788 -0.847141 121.338966
[R_mid_hand01]
26 104.680779 11.144459 -10.335981 -41.523792 25.424656 28.595957 105.778534
27 104.680779 11.144459 -10.335981 -41.523792 25.424656 28.595957 105.778534
[R_mid_hand02]
26 104.070427 2.443552 8.231699 72.847389 -32.746803 10.013901 104.424065
27 104.070427 2.443552 8.231699 72.847389 -32.746803 10.013901 104.424065
[R_mid_hand03]
26 106.028137 -11.221827 -5.996406 -167.901306 10.259192 -37.009720 106.788818
27 106.028137 -11.221827 -5.996406 -167.901306 10.259192 -37.009720 106.788818
[spine02]
26 129.756927 0.001550 0.000119 0.001147 -1.797837 -7.854275 129.756927
27 129.756927 0.001550 0.000119 0.001147 -1.797837 -7.854275 129.756927
[spine03]
26 79.115631 0.000000 -0.000119 1.459971 -2.848092 23.765965 79.115631
27 79.115631 0.000000 -0.000119 1.459971 -2.848092 23.765963 79.115631
[pelvis]
26 169.435242 0.051022 0.000000 -0.000005 0.000003 -4.322055 169.435257
27 169.435242 0.051022 0.000000 -0.000005 0.000003 -4.322055 169.435257
[null_rope03_connect]
26 -1.257226 -2.466202 137.391083 -83.181747 57.862003 168.031555 137.418976
27 -1.257226 -2.466202 137.391083 -82.082970 56.914413 168.808884 137.418976
[null_rope04_connect]
26 -1.259640 -2.480268 -137.844437 -83.181747 57.862003 168.031555 137.872513
27 -1.259640 -2.480268 -137.844437 -82.082970 56.914413 168.808884 137.872513
[Rope3_Seg01]
26 0.000057 -0.000043 0.000127 -129.757019 1.032673 118.165085 0.000146
27 0.000061 -0.000042 0.000132 -129.085403 4.142967 117.514565 0.000152
[Rope3_Seg02]
26 139.999924 -0.000119 0.000060 0.344036 -2.858628 -3.208210 139.999924
27 139.999924 -0.000119 0.000060 0.050369 -1.684113 -2.977022 139.999924
[Rope3_Seg03]
26 139.999924 -0.000119 0.000119 0.475639 -3.328482 -3.703868 139.999924
27 139.999924 -0.000119 0.000119 0.031252 -1.961799 -3.461876 139.999924
[Rope3_Seg04]
26 139.999924 0.000119 0.000000 0.731851 -4.482470 -4.983043 139.999924
27 139.999924 0.000119 0.000000 -0.143048 -2.350206 -4.527762 139.999924
[Rope3_Seg05]
26 139.999924 -0.000238 0.000060 1.709056 -6.549604 -7.274677 139.999924
27 139.999924 -0.000238 0.000060 -0.284173 -2.916721 -6.282246 139.999924
[Rope3_Seg06]
26 139.999893 -0.000119 -0.000060 1.030499 -1.931586 -1.752037 139.999893
27 139.999893 -0.000119 -0.000060 0.918049 -2.622586 -2.849414 139.999893
[Rope3_Seg07]
26 139.999771 0.000060 -0.000119 0.130717 3.540886 4.172859 139.999771
27 139.999771 0.000060 -0.000119 2.029328 -1.855418 0.948292 139.999771
[Rope3_Seg08]
26 139.999985 -0.000060 0.000000 0.408226 1.809126 2.248920 139.999985
27 139.999985 -0.000060 0.000000 1.449667 -1.612487 -0.261146 139.999985
[Rope3_Seg09]
26 90.185997 -0.000179 -0.000060 89.793228 -1.359877 -0.847183 90.185997
27 90.185997 -0.000179 -0.000060 89.793228 -1.359877 -0.847183 90.185997
[R_rear_hand01]
26 103.366196 -6.073594 -10.757982 -161.551193 16.666374 -30.088671 104.101845
27 103.366196 -6.073594 -10.757982 -161.551193 16.666374 -30.088671 104.101845
[R_rear_hand02]
26 100.509819 12.039542 -7.992327 -34.280552 19.289745 28.875523 101.543350
27 100.509819 12.039542 -7.992327 -34.280552 19.289745 28.875523 101.543350
[R_rear_hand03]
26 101.539970 5.215704 5.435467 83.366440 -30.933914 7.284830 101.819031
27 101.539970 5.215704 5.435467 83.366440 -30.933914 7.284830 101.819031
[Rope4_Seg01]
26 -0.000114 0.000093 0.000000 49.304813 10.464347 96.141853 0.000147
27 -0.000122 0.000092 0.000000 52.375198 15.726820 101.958015 0.000153
[Rope4_Seg02]
26 139.999985 0.000060 0.000119 -3.015656 14.498473 16.652216 139.999985
27 139.999985 0.000060 0.000119 -5.136515 8.219185 13.899184 139.999985
[Rope4_Seg03]
26 139.999924 0.000000 -0.000238 -6.451365 7.986806 11.050449 139.999924
27 139.999924 0.000000 -0.000238 -5.703783 3.458092 8.462484 139.999924
[Rope4_Seg04]
26 139.999985 0.000000 0.000119 -8.051663 4.154511 7.931871 139.999985
27 139.999985 0.000000 0.000119 -4.956385 1.244823 5.474765 139.999985
[Rope4_Seg05]
26 139.999802 -0.000060 -0.000119 -2.221807 1.019367 1.965665 139.999802
27 139.999802 -0.000060 -0.000119 -1.673026 1.175937 2.156114 139.999802
[Rope4_Seg06]
26 139.999924 0.000000 0.000060 2.773851 0.208061 -1.576418 139.999924
27 139.999924 0.000000 0.000060 0.556942 1.972010 0.649368 139.999924
[Rope4_Seg07]
26 139.999802 0.000000 0.000000 6.606869 -0.446258 -4.691975 139.999802
27 139.999802 0.000000 0.000000 1.876535 2.897496 0.187709 139.999802
[Rope4_Seg08]
26 139.999924 0.000000 0.000119 1.458145 -0.114028 -2.181126 139.999924
27 139.999924 0.000000 0.000119 -1.222785 2.123704 0.928819 139.999924
[Rope4_Seg09]
26 90.185791 0.000060 0.000060 -135.617828 2.228885 0.850567 90.185791
27 90.185791 0.000060 0.000060 -135.617828 2.228885 0.850567 90.185791
[L_rear_hand01]
26 101.696655 -8.392275 -7.654577 -34.454281 -18.946800 151.655121 102.329041
27 101.696655 -8.392275 -7.654577 -34.454281 -18.946800 151.655121 102.329041
[L_rear_hand02]
26 102.726799 -1.568258 5.773216 83.407906 30.330435 172.796509 102.900848
27 102.726799 -1.568258 5.773216 83.407906 30.330435 172.796509 102.900848
[L_rear_hand03]
26 104.552910 9.721220 -10.420293 -161.379868 -16.473232 -150.512238 105.519653
27 104.552910 9.721220 -10.420293 -161.379868 -16.473232 -150.512238 105.519653
